Genre:Action | Comedy | Horror
Language:English  http://www.imdb.com/title/tt1270835/
Source:DVD


Format : AVI
Format/Info : Audio Video Interleave
File size : 904 MiB
Duration : 1h 25mn
Overall bit rate : 1 480 Kbps


Video
Codec ID/Hint : XviD
Duration : 1h 25mn
Bit rate : 1 023 Kbps
Width : 608 pixels
Height : 336 pixels
Display aspect ratio : 16:9
Frame rate : 23.976 fps
Color space : YUV
Chroma subsampling : 4:2:0
Bit depth : 8 bits
Scan type : Progressive
Bits/(Pixel*Frame) : 0.209
Stream size : 625 MiB (69%)
Writing library : XviD

Audio
ID : 1
Format : AC-3
Format/Info : Audio Coding 3
Mode extension : CM (complete main)
Codec ID : 2000
Duration : 1h 25mn
Bit rate mode : Constant
Bit rate : 448 Kbps
Channel(s) : 6 channels
Channel positions : Front: L C R, Side: L R, LFE
Sampling rate : 48.0 KHz
Bit depth : 16 bits
Stream size : 273 MiB (30%)
Alignment : Split accross interleaves
Interleave, duration : 42 ms (1.00 video frame)
Interleave, preload duration : 500 ms



Plot:
Marybeth escapes the clutches of the deformed, swamp-dwelling iconic killer Victor Crowley. After learning the truth about her family's connection to the hatchet-wielding madman
 
http://rapidhdd.com/images/404885vlcsnap-00001.png 
http://www.rapidhdd.com/images/141359vlcsnap-00003.png 
http://www.rapidhdd.com/images/51827vlcsnap-00004.png 
http://www.rapidhdd.com/images/69988vlcsnap-00005.png 
http://www.rapidhdd.com/images/783143vlcsnap-00007.png
